<?xml version="1.0" encoding="UTF-8"?><svg id="a" xmlns="http://www.w3.org/2000/svg" xmlns:xlink="http://www.w3.org/1999/xlink" viewBox="0 0 103.81 96.99"><defs><style>.j{clip-path:url(#d);}.k{fill:none;}.l{fill:#3c3c3c;}</style><clipPath id="d"><rect class="k" y=".18" width="103.81" height="96.82"/></clipPath></defs><g id="b" transform="translate(-3.157)"><g id="c" transform="translate(3.157 1)"><g class="j"><g id="e" transform="translate(0 0)"><path id="f" class="l" d="M71.86,53.78c-.6-1.75-2.25-2.92-4.09-2.91h-31.71c-1.85,0-3.49,1.17-4.09,2.91l-6,17.27v23.06c0,1.59,1.29,2.87,2.88,2.88h2.91c1.59,0,2.88-1.29,2.88-2.88v-2.88h34.59v2.88c0,1.59,1.29,2.87,2.88,2.88h2.88c1.59,0,2.87-1.29,2.88-2.88v-23.06l-6.01-17.27Zm-32.64,26.91c-1.86,0-3.37-1.51-3.37-3.37,0-1.86,1.51-3.37,3.37-3.37s3.36,1.5,3.37,3.36c0,1.86-1.5,3.37-3.36,3.37h0m25.39,0c-1.86,0-3.37-1.51-3.37-3.37s1.51-3.37,3.37-3.37,3.36,1.5,3.37,3.36c0,1.86-1.51,3.37-3.37,3.37m-28.76-12.5l3.45-11.1h25.25l3.45,11.1H35.85Z"/><path id="g" class="l" d="M26.12,60.96l1.65-4.76H7.79c-1.43-.01-2.71,.88-3.18,2.23L0,71.71v17.73c0,1.22,.99,2.22,2.22,2.22h2.21c1.22,0,2.22-.99,2.22-2.22v-2.22H22.8v-16.71l.35-1.02H7.58l2.65-8.54h15.89Zm-16.07,12.98c1.6,0,2.89,1.3,2.89,2.89s-1.3,2.89-2.89,2.89-2.89-1.3-2.89-2.89h0c0-1.6,1.3-2.89,2.89-2.89"/><path id="h" class="l" d="M99.2,58.43c-.46-1.34-1.73-2.25-3.15-2.24h-20.01l1.65,4.76h15.87l2.65,8.54h-15.57l.36,1.01v16.73h16.16v2.21c0,1.22,.99,2.22,2.22,2.22h2.22c1.22,0,2.21-1,2.21-2.22v-17.73l-4.61-13.29Zm-4.64,21.33c-1.6,0-2.89-1.3-2.89-2.89,0-1.6,1.3-2.89,2.89-2.89s2.89,1.3,2.89,2.89h0c0,1.6-1.3,2.89-2.89,2.89"/><path id="i" class="l" d="M51.91,41.7c4.33-5.72,14.22-20.29,14.22-27.48,0-7.85-6.36-14.22-14.22-14.22s-14.22,6.36-14.22,14.22c0,7.39,9.73,21.67,14.22,27.48m-.05-31.14c2.33,.03,4.2,1.94,4.18,4.27s-1.94,4.2-4.27,4.18c-2.31-.02-4.18-1.91-4.18-4.22,.01-2.34,1.92-4.23,4.27-4.22"/></g></g></g></g></svg>