<?xml version="1.0" encoding="UTF-8"?>
<svg xmlns="http://www.w3.org/2000/svg" xmlns:xlink="http://www.w3.org/1999/xlink" width="874.675" height="79.525" viewBox="0 0 874.675 79.525">
  <defs>
    <clipPath id="clip-path">
      <rect id="Rectángulo_1" data-name="Rectángulo 1" width="874.675" height="79.525" transform="translate(0 0)" fill="none"></rect>
    </clipPath>
  </defs>
  <g id="Grupo_2" data-name="Grupo 2" transform="translate(0 0)">
    <g id="Grupo_1" data-name="Grupo 1" clip-path="url(#clip-path)">
      <path id="Trazado_1" data-name="Trazado 1" d="M757.13,27.039A19.1,19.1,0,0,0,738.016,7.956H654.043l7.646,12.722h76.327a6.361,6.361,0,1,1,0,12.722H654.043V71.568h15.291V46.123h56.517l14.714,25.445H757.13l-14.976-25.9a19.093,19.093,0,0,0,14.976-18.63" fill="#fff"></path>
      <path id="Trazado_2" data-name="Trazado 2" d="M507.225,33.4H434.72V7.956H419.429V71.569H434.72V46.124h72.505V71.569h15.29V7.956h-15.29Z" fill="#fff"></path>
      <path id="Trazado_3" data-name="Trazado 3" d="M317.456,39.761a19.1,19.1,0,0,1,19.112-19.083h61.037L405.25,7.956H334.02a31.817,31.817,0,0,0-25.485,12.722,31.629,31.629,0,0,0-6.371,19.084,31.96,31.96,0,0,0,.638,6.361A31.858,31.858,0,0,0,327.65,70.93a32.05,32.05,0,0,0,6.37.638h63.585l7.645-12.723H336.568a19.082,19.082,0,0,1-19.112-19.082h0Z" fill="#fff"></path>
      <path id="Trazado_4" data-name="Trazado 4" d="M853.045,7.957l-36.3,27.89-36.3-27.89H758.011l49.68,38.167V71.568H825V46.124l49.68-38.167Z" fill="#fff"></path>
      <path id="Trazado_5" data-name="Trazado 5" d="M552.069,26.881a6.362,6.362,0,0,1,6.359-6.2h73.791l7.646-12.723H555.892a19.1,19.1,0,0,0-19.114,19.083V71.568h95.441l7.646-12.722h-87.8V46.123h64.859L624.574,33.4H552.069v-6.52Z" fill="#fff"></path>
      <path id="Trazado_6" data-name="Trazado 6" d="M198.93,10.166C181.946,5.083,160.559,1.6,136.91.432Q128.612.02,119.972,0h-1.386q-8.626.016-16.933.432C78,1.6,56.611,5.077,39.628,10.166,15.3,17.443,0,28.008,0,39.762c0,9.953,10.98,19.059,29.114,26.033A173.292,173.292,0,0,0,54.49,73.151c7.7,1.666,16.024,3.046,24.822,4.084a341.259,341.259,0,0,0,39.97,2.289,341.231,341.231,0,0,0,39.964-2.289c8.8-1.038,17.118-2.418,24.821-4.084a173.272,173.272,0,0,0,25.377-7.356c18.139-6.974,29.113-16.08,29.113-26.033,0-11.754-15.3-22.319-39.627-29.6M49.525,51.012a17.094,17.094,0,0,1-17.069,1.78C21.982,48.042,15.9,42.376,15.9,36.295c0-7.631,9.577-14.61,25.393-19.946,17.169-5.79,41.693-9.656,69.291-10.329.371-.011.735-.017,1.106-.023,1.666-.039,3.332-.061,5.015-.073a16.475,16.475,0,0,0-3.248.848c-.011.005-.028.005-.039.011-.348.135-.7.275-1.033.432l-.05-.034c-4.141,1.661-9.74,5.459-11.553,6.722l-.308.219-.281.2L56.078,46.265ZM161.013,64.09a326.329,326.329,0,0,1-41.731,2.58A326.263,326.263,0,0,1,77.55,64.09c-11.659-2.1-6.043-10.01-2.99-13.4a.8.8,0,0,1,.1-.1c.741-.819,1.313-1.358,1.414-1.448l.017-.016q2.97-3.013,6.07-6c6.828-6.6,13.729-12.747,20.586-18.391q3.18-2.626,6.351-5.106a.046.046,0,0,1,.017-.011.339.339,0,0,1,.045-.04c.1-.084.325-.263.65-.5,1.622-1.206,5.746-3.967,9.477-3.955,3.725-.012,7.849,2.749,9.47,3.955a2.745,2.745,0,0,1,.225.168l.185.141c.084.061.151.118.2.157.034.022.056.045.073.056a.33.33,0,0,1,.034.028q3.165,2.475,6.357,5.106c6.85,5.644,13.751,11.793,20.579,18.391q3.1,2.988,6.071,6l.017.016a.712.712,0,0,1,.056.056c.185.169.7.662,1.335,1.364l.006.005c3.03,3.322,8.921,11.4-2.873,13.528m45.089-11.3a17.094,17.094,0,0,1-17.069-1.78l-6.554-4.747L138.363,14.324s-.05-.034-.146-.107l-.134-.1-.309-.219c-1.812-1.263-7.411-5.061-11.552-6.722l-.051.034c-.325-.151-.656-.292-.993-.415a.406.406,0,0,0-.078-.028,16.518,16.518,0,0,0-3.243-.848c1.683.012,3.349.034,5.01.073h.006c.37.006.729.012,1.1.023,27.6.673,52.116,4.533,69.285,10.329h.005c15.817,5.336,25.394,12.315,25.394,19.946,0,6.081-6.081,11.747-16.555,16.5" fill="#fff"></path>
    </g>
  </g>
</svg>
